<?xml version="1.0" standalone="no"?><!DOCTYPE svg PUBLIC "-//W3C//DTD SVG 1.1//EN" "http://www.w3.org/Graphics/SVG/1.1/DTD/svg11.dtd"><svg t="1764134563900" class="icon" viewBox="0 0 1024 1024" version="1.1" xmlns="http://www.w3.org/2000/svg" p-id="39634" xmlns:xlink="http://www.w3.org/1999/xlink" width="16" height="16"><path d="M0 512a512 512 0 1 0 1024 0A512 512 0 1 0 0 512z" fill="#58C05A" p-id="39635"></path><path d="M721.25 468.834v200.862a78.77 78.77 0 0 1-69.907 78.257V783.4a34.974 34.974 0 0 1-69.908 0l-0.04-34.934H441.58V783.4a34.974 34.974 0 1 1-69.868 0v-35.446a78.77 78.77 0 0 1-69.908-78.257V468.834H721.25z m-489.353 0c19.298 0 34.934 15.636 34.934 34.935v104.88a34.974 34.974 0 1 1-69.908 0V503.73c0-19.298 15.636-34.934 34.974-34.934z m559.261 0c19.299 0 34.934 15.636 34.934 34.935v104.88a34.974 34.974 0 1 1-69.907 0V503.73c0-19.298 15.635-34.934 34.973-34.934zM338.511 201.058l3.23 2.757 53.444 55.65a209.447 209.447 0 0 1 115.87-34.776c43.087 0 83.14 12.958 116.5 35.17l53.76-56.083 3.268-2.718a23.394 23.394 0 0 1 29.854 35.84l-51.003 53.09a209.684 209.684 0 0 1 57.895 136.666l0.158 8.467H300.662c0-56.517 22.252-107.795 58.486-145.605l-50.49-52.618a23.394 23.394 0 0 1 29.853-35.84z m92.947 93.736a35.092 35.092 0 1 0 0 70.223 35.092 35.092 0 0 0 0-70.223z m160.099 0a35.092 35.092 0 1 0 0 70.223 35.092 35.092 0 0 0 0-70.223z" fill="#FFFFFF" p-id="39636"></path></svg>