<?xml version="1.0" standalone="no"?><!DOCTYPE svg PUBLIC "-//W3C//DTD SVG 1.1//EN" "http://www.w3.org/Graphics/SVG/1.1/DTD/svg11.dtd"><svg t="1764126882092" class="icon" viewBox="0 0 1024 1024" version="1.1" xmlns="http://www.w3.org/2000/svg" p-id="19340" xmlns:xlink="http://www.w3.org/1999/xlink" width="16" height="16"><path d="M511.488 1024C229.034667 1024 0 794.965333 0 512.512 0 230.024533 229.034667 0.989867 511.488 0.989867c282.487467 0 511.522133 229.034667 511.522133 511.522133C1022.976 794.965333 793.941333 1024 511.488 1024z" fill="#4992FF" p-id="19341"></path><path d="M556.578133 342.016c-9.728 0-19.114667 3.959467-25.941333 10.922667a37.444267 37.444267 0 0 0-10.752 26.3168v268.629333a34.816 34.816 0 0 0 34.577067 35.0208c19.114667 0 34.577067-15.701333 34.577066-35.0208v-193.160533h0.955734l120.285866 196.4032c12.151467 19.797333 33.450667 31.8464 56.4224 31.8464a37.205333 37.205333 0 0 0 36.932267-37.4784v-268.3904a35.157333 35.157333 0 0 0-17.271467-30.344534 34.2016 34.2016 0 0 0-34.577066 0 35.157333 35.157333 0 0 0-17.3056 30.378667v193.604267l-121.719467-197.154134a66.082133 66.082133 0 0 0-56.183467-31.5392zM397.448533 454.8608c1.160533 5.461333 15.2576 16.145067 40.0384 13.653333 24.746667-2.525867 27.5456-12.288 27.136-16.213333a121.617067 121.617067 0 0 0-13.892266-43.144533 121.309867 121.309867 0 0 0-30.481067-36.727467 132.983467 132.983467 0 0 0-41.7792-22.6304 156.194133 156.194133 0 0 0-49.5616-7.748267c-24.302933 0-46.1824 4.4032-65.570133 13.277867a140.458667 140.458667 0 0 0-49.152 36.488533 163.874133 163.874133 0 0 0-30.651734 54.510934 208.554667 208.554667 0 0 0-10.683733 67.7888c0 23.688533 3.549867 45.841067 10.683733 66.389333 7.099733 20.548267 17.339733 38.4 30.651734 53.623467 13.312 15.189333 29.696 27.136 49.152 35.84 19.387733 8.669867 41.233067 12.970667 65.536 12.970666a152.746667 152.746667 0 0 0 53.794133-9.1136c15.872-5.802667 30.378667-14.813867 42.666667-26.487466 12.1856-11.5712 21.981867-25.531733 29.354666-41.949867 2.6624-5.905067 4.949333-11.9808 6.826667-18.193067 2.423467-8.021333 4.266667-16.418133 5.597867-25.1904 1.058133-6.7584-5.0176-21.742933-32.119467-21.742933-27.067733 0-34.030933 13.653333-36.078933 21.8112-1.024 4.676267-2.321067 9.147733-3.822934 13.380267a83.285333 83.285333 0 0 1-16.1792 27.648c-12.014933 13.380267-28.672 20.0704-50.005333 20.0704-15.701333 0-29.0816-3.140267-40.004267-9.386667a77.141333 77.141333 0 0 1-26.692266-24.849067 109.397333 109.397333 0 0 1-14.916267-34.9184 169.813333 169.813333 0 0 1-4.642133-39.936c0-14.267733 1.570133-28.091733 4.642133-41.506133a111.274667 111.274667 0 0 1 14.916267-35.84c6.7584-10.410667 15.906133-19.0464 26.692266-25.088 10.922667-6.2464 24.2688-9.386667 40.004267-9.386667a71.4752 71.4752 0 0 1 61.3376 34.474667c3.3792 5.597867 5.802667 11.605333 7.168 18.090667z" fill="#FFFFFF" p-id="19342"></path></svg>