<?xml version="1.0" standalone="no"?><!DOCTYPE svg PUBLIC "-//W3C//DTD SVG 1.1//EN" "http://www.w3.org/Graphics/SVG/1.1/DTD/svg11.dtd"><svg class="icon" width="16px" height="16.00px" viewBox="0 0 1024 1024" version="1.1" xmlns="http://www.w3.org/2000/svg"><path d="M512 44.522c258.226 0 467.478 209.252 467.478 467.478S770.226 979.478 512 979.478 44.522 770.226 44.522 512 253.774 44.522 512 44.522z m-148.525 623.75C345 646.01 322.07 637.996 294.333 644.496l-6.99 1.914-27.603 47.505a38.467 38.467 0 0 0 63.844 42.785l2.938-4.318 36.953-64.112z m205.068-312.41c-22.796 18.877-45.813 74.663-13.535 130.27l142.113 246.206a38.511 38.511 0 0 0 69.01-33.747l-2.316-4.675-37.487-65.091h55.652a38.333 38.333 0 0 0 38.422-38.467 38.333 38.333 0 0 0-33.658-38.155l-4.809-0.267h-100.04L579.317 374.428l-10.774-18.521v-0.045z m13-142.291a38.556 38.556 0 0 0-49.686 9.795l-2.894 4.318-17.141 29.607-16.785-29.607a38.511 38.511 0 0 0-69.008 33.748l2.315 4.674 39.179 68.119L341.97 551.713H243.98a38.333 38.333 0 0 0-38.422 38.467c0 19.679 14.603 35.796 33.614 38.155l4.808 0.312h349.674c15.894-29.919-2.805-72.437-37.844-76.577l-5.654-0.357H430.837L595.7 266.106a38.467 38.467 0 0 0-14.114-52.535z" fill="#3470FF" /></svg>