<?xml version="1.0" standalone="no"?><!DOCTYPE svg PUBLIC "-//W3C//DTD SVG 1.1//EN" "http://www.w3.org/Graphics/SVG/1.1/DTD/svg11.dtd"><svg t="1764134670153" class="icon" viewBox="0 0 1024 1024" version="1.1" xmlns="http://www.w3.org/2000/svg" p-id="47523" xmlns:xlink="http://www.w3.org/1999/xlink" width="16" height="16"><path d="M0 512a512 512 0 1 0 1024.001143 0A512 512 0 0 0 0 512z" fill="#379EFB" p-id="47524"></path><path d="M664.091429 775.771429H359.817143c-23.405714 0-40.96-17.554286-40.96-40.96V290.102857c0-23.405714 17.554286-40.96 40.96-40.96h304.274286c23.405714 0 40.96 17.554286 40.96 40.96v444.708572c0 23.405714-17.554286 40.96-40.96 40.96z" fill="#FFFFFF" p-id="47525"></path><path d="M623.129143 617.780571h-222.354286c-17.554286 0-29.257143-11.702857-29.257143-29.257142v-257.462858c0-17.554286 11.702857-29.257143 29.257143-29.257142h228.205714c17.554286 0 29.257143 11.702857 29.257143 29.257142v257.462858c-5.851429 17.554286-17.554286 29.257143-35.108571 29.257142z" fill="#379EFB" opacity=".45" p-id="47526"></path><path d="M476.848 699.702857a35.108571 35.108571 0 1 0 70.218286-0.002286 35.108571 35.108571 0 0 0-70.218286 0.002286z" fill="#A5D3FD" p-id="47527"></path></svg>