<?xml version="1.0" standalone="no"?><!DOCTYPE svg PUBLIC "-//W3C//DTD SVG 1.1//EN" "http://www.w3.org/Graphics/SVG/1.1/DTD/svg11.dtd"><svg t="1764126838960" class="icon" viewBox="0 0 1024 1024" version="1.1" xmlns="http://www.w3.org/2000/svg" p-id="14913" xmlns:xlink="http://www.w3.org/1999/xlink" width="16" height="16"><path d="M975.858788 367.428692c-52.374488-31.779107-96.124906-108.371873-97.148768-170.276155-1.023862-61.825523-51.153729-104.433942-111.44346-94.786009-60.407868 9.687311-142.395601-20.595381-182.444363-67.22049-40.088142-46.664487-105.615321-46.664487-145.703463 0-40.048763 46.703867-122.075874 76.94718-182.444363 67.338628-60.250351-9.76607-110.537735 32.842348-111.600977 94.667871C144.049532 259.056819 100.377872 335.649586 48.042763 367.428692c-52.374488 31.818486-63.676351 97.148768-25.202761 145.230912 38.434211 48.042763 53.555867 135.149807 33.708693 193.628088-19.965312 58.438902 12.877036 115.893322 72.772973 127.667737 59.974696 11.813794 126.840771 68.677524 148.814429 126.407599 21.81614 57.690695 83.444767 80.333801 136.764359 50.405522 53.477109-30.007038 140.781049-30.007038 194.218778 0 53.319592 29.928279 114.987598 7.285173 136.803738-50.405522 21.855519-57.730075 88.800354-114.593805 148.775049-126.407599 59.935316-11.774415 92.698906-69.228835 72.851732-127.667737-19.965312-58.478282-4.804276-145.585325 33.669314-193.628088 38.276694-48.042763 26.856692-113.412425-25.360279-145.230912zM474.914531 783.589286L248.562232 557.355125l90.493664-90.493664 135.819255 135.819255 226.31292-226.312919 90.493664 90.493664-316.806584 316.767204z" fill="#FFC000" p-id="14914"></path></svg>