<?xml version="1.0" standalone="no"?><!DOCTYPE svg PUBLIC "-//W3C//DTD SVG 1.1//EN" "http://www.w3.org/Graphics/SVG/1.1/DTD/svg11.dtd"><svg class="icon" width="16px" height="16.00px" viewBox="0 0 1024 1024" version="1.1" xmlns="http://www.w3.org/2000/svg"><path d="M891.904 33.28H132.096C58.88 33.28 0 91.136 0 162.816v512c0 71.68 58.88 129.024 132.096 129.024H409.6v51.2H206.848c-13.312 0-26.112 7.68-32.768 19.456L141.312 936.96c-13.312 24.576 4.096 53.76 32.768 53.76h682.496c27.648 0 45.568-29.696 32.768-53.76l-33.792-62.464c-6.656-11.264-18.432-19.456-32.768-19.456h-207.872v-51.2h277.504c73.216 0 132.096-58.88 132.096-130.56V162.816C1024 92.16 965.12 33.28 891.904 33.28z m66.56 641.536c0 35.84-30.208 65.536-66.56 65.536H132.096c-36.864 0-66.56-29.696-66.56-65.536V163.84c0-35.84 30.208-65.536 66.56-65.536V97.28h759.808c36.864 0 66.56 29.696 66.56 65.536v512z" fill="#2F8CFF" /><path d="M461.824 231.936l-198.144 28.16v155.648L461.824 409.6zM760.832 195.584l-272.384 31.232v182.272l272.384-6.144zM262.656 599.552l200.192 18.944V438.784H262.656zM488.448 622.592l272.896 26.112v-209.92H488.448z" fill="#2F8CFF" /></svg>